<svg width="523" height="380" viewBox="0 0 523 380" fill="none" xmlns="http://www.w3.org/2000/svg">
<g id="undraw_online_learning_re_qw08 (1) 1" clip-path="url(#clip0_1_84)">
<path id="Vector" d="M522.244 377.086H0.75578C0.555335 377.086 0.363099 377.006 0.221362 376.863C0.0796261 376.721 0 376.527 0 376.326C0 376.124 0.0796261 375.931 0.221362 375.788C0.363099 375.645 0.555335 375.565 0.75578 375.565H522.244C522.445 375.565 522.637 375.645 522.779 375.788C522.92 375.931 523 376.124 523 376.326C523 376.527 522.92 376.721 522.779 376.863C522.637 377.006 522.445 377.086 522.244 377.086Z" fill="#CCCCCC"/>
<path id="Vector_2" d="M172.972 254.39V253.89H172.472H163.781C162.612 253.89 161.49 253.423 160.662 252.59C159.834 251.758 159.368 250.628 159.368 249.449C159.368 248.27 159.834 247.14 160.662 246.307C161.49 245.475 162.612 245.008 163.781 245.008H470.628C471.797 245.008 472.919 245.475 473.747 246.307C474.575 247.14 475.04 248.27 475.04 249.449C475.04 250.628 474.575 251.758 473.747 252.59C472.919 253.423 471.797 253.89 470.628 253.89H462.61H462.314L462.171 254.15L460.742 256.755L460.68 256.867V256.996V372.599C460.68 373.778 460.215 374.908 459.387 375.741C458.559 376.573 457.437 377.041 456.268 377.041C455.099 377.041 453.977 376.573 453.149 375.741C452.321 374.908 451.855 373.778 451.855 372.599V254.39V253.89H451.355H182.372H181.873L181.872 254.39L181.798 372.599V372.599C181.798 373.778 181.332 374.908 180.504 375.741C179.676 376.573 178.554 377.041 177.385 377.041C176.216 377.041 175.094 376.573 174.266 375.741C173.438 374.908 172.972 373.778 172.972 372.599V254.39Z" fill="#CCCCCC" stroke="#2F0404"/>
<path id="Vector_3" d="M333.899 247.094H240.952C239.152 247.092 237.427 246.372 236.154 245.092C234.882 243.812 234.166 242.076 234.164 240.266V188.794C234.166 186.984 234.882 185.248 236.154 183.968C237.427 182.688 239.152 181.968 240.952 181.966H333.899C335.699 181.968 337.424 182.688 338.697 183.968C339.97 185.248 340.686 186.984 340.688 188.794V240.266C340.686 242.076 339.97 243.812 338.697 245.092C337.424 246.372 335.699 247.092 333.899 247.094Z" fill="#3F3D56"/>
<path id="Vector_4" d="M333.899 187.221H240.953C240.538 187.222 240.14 187.388 239.847 187.683C239.554 187.978 239.389 188.378 239.388 188.795V240.267C239.389 240.684 239.554 241.084 239.847 241.379C240.14 241.674 240.538 241.84 240.953 241.841H333.899C334.313 241.84 334.711 241.674 335.004 241.379C335.297 241.084 335.462 240.684 335.463 240.267V188.795C335.462 188.378 335.297 187.978 335.004 187.683C334.711 187.388 334.313 187.222 333.899 187.221Z" fill="white"/>
<path id="Vector_5" d="M295.353 223.663C295.353 223.663 284.226 221.084 278.106 225.812C271.987 230.54 285.895 241.286 285.895 241.286L295.353 223.663Z" fill="#2F2E41"/>
<path id="Vector_6" d="M287.971 218.791C293.767 218.791 298.466 214.064 298.466 208.234C298.466 202.403 293.767 197.677 287.971 197.677C282.174 197.677 277.475 202.403 277.475 208.234C277.475 214.064 282.174 218.791 287.971 218.791Z" fill="#A0616A"/>
<path id="Vector_7" d="M279.855 193.415C280.555 192.22 281.569 191.243 282.786 190.591C284.004 189.94 285.376 189.639 286.752 189.723C288.192 189.905 289.597 190.3 290.921 190.897L297.782 193.589C299.557 194.286 301.502 195.139 302.272 196.892C302.987 198.519 302.454 200.399 301.914 202.093L299.347 210.146C299.062 208.323 298.574 206.538 297.892 204.826C297.199 203.102 295.945 201.665 294.337 200.748C292.554 199.829 290.454 199.848 288.453 199.945C285.62 200.082 282.539 200.444 280.525 202.455C279.457 203.596 278.732 205.02 278.436 206.559C278.145 208.09 277.998 209.646 277.998 211.205C276.836 209.196 275.857 207.086 275.074 204.899C274.429 203.271 274.062 201.545 273.987 199.795C273.92 198.029 274.502 196.3 275.623 194.939C276.192 194.274 276.934 193.782 277.766 193.519C278.598 193.256 279.487 193.231 280.332 193.449L279.855 193.415Z" fill="black"/>
<path id="Vector_8" d="M313.031 232.817C312.933 232.461 312.732 232.141 312.454 231.899C312.175 231.657 311.832 231.503 311.467 231.457C311.443 231.44 311.418 231.424 311.391 231.411L295.723 222.579C295.276 222.327 294.749 222.258 294.252 222.386C293.755 222.515 293.327 222.831 293.056 223.269L288.771 230.248L282.317 223.756L282.214 223.653C281.883 223.32 281.446 223.114 280.979 223.073C280.512 223.032 280.046 223.158 279.662 223.428L266.785 232.498C266.763 232.498 266.74 232.506 266.717 232.506C266.101 232.609 265.538 232.921 265.122 233.389C264.705 233.858 264.46 234.455 264.427 235.083L264.095 241.841H315.518L313.031 232.817Z" fill="#2F0404"/>
<path id="Vector_9" d="M341.732 240.791H331.811C331.811 240.512 331.701 240.245 331.505 240.048C331.309 239.851 331.043 239.741 330.766 239.741H327.633C327.356 239.741 327.091 239.851 326.895 240.048C326.699 240.245 326.589 240.512 326.589 240.791H323.456C323.456 240.512 323.346 240.245 323.15 240.048C322.954 239.851 322.688 239.741 322.411 239.741H319.278C319.001 239.741 318.736 239.851 318.54 240.048C318.344 240.245 318.234 240.512 318.234 240.791H315.101C315.101 240.512 314.991 240.245 314.795 240.048C314.599 239.851 314.334 239.741 314.057 239.741H310.924C310.647 239.741 310.381 239.851 310.185 240.048C309.989 240.245 309.879 240.512 309.879 240.791H306.746C306.746 240.512 306.636 240.245 306.44 240.048C306.244 239.851 305.979 239.741 305.702 239.741H302.569C302.292 239.741 302.026 239.851 301.83 240.048C301.634 240.245 301.524 240.512 301.524 240.791H298.391C298.391 240.512 298.281 240.245 298.085 240.048C297.89 239.851 297.624 239.741 297.347 239.741H294.214C293.937 239.741 293.671 239.851 293.476 240.048C293.28 240.245 293.17 240.512 293.17 240.791H290.037C290.037 240.512 289.927 240.245 289.731 240.048C289.535 239.851 289.269 239.741 288.992 239.741H285.859C285.582 239.741 285.317 239.851 285.121 240.048C284.925 240.245 284.815 240.512 284.815 240.791H281.682C281.682 240.512 281.572 240.245 281.376 240.048C281.18 239.851 280.914 239.741 280.637 239.741H277.504C277.227 239.741 276.962 239.851 276.766 240.048C276.57 240.245 276.46 240.512 276.46 240.791H273.327C273.327 240.512 273.217 240.245 273.021 240.048C272.825 239.851 272.56 239.741 272.283 239.741H269.15C268.873 239.741 268.607 239.851 268.411 240.048C268.215 240.245 268.105 240.512 268.105 240.791H264.972C264.972 240.512 264.862 240.245 264.666 240.048C264.47 239.851 264.205 239.741 263.928 239.741H260.795C260.518 239.741 260.252 239.851 260.056 240.048C259.86 240.245 259.75 240.512 259.75 240.791H256.617C256.617 240.512 256.507 240.245 256.311 240.048C256.116 239.851 255.85 239.741 255.573 239.741H252.44C252.163 239.741 251.897 239.851 251.701 240.048C251.506 240.245 251.396 240.512 251.396 240.791H248.263C248.263 240.512 248.152 240.245 247.957 240.048C247.761 239.851 247.495 239.741 247.218 239.741H244.085C243.808 239.741 243.542 239.851 243.347 240.048C243.151 240.245 243.041 240.512 243.041 240.791H233.119C232.289 240.792 231.494 241.125 230.907 241.716C230.321 242.307 229.991 243.107 229.991 243.942C229.991 244.777 230.321 245.578 230.907 246.169C231.494 246.76 232.289 247.092 233.119 247.094H341.732C342.563 247.094 343.36 246.762 343.947 246.171C344.535 245.58 344.865 244.778 344.865 243.942C344.865 243.107 344.535 242.305 343.947 241.714C343.36 241.123 342.563 240.791 341.732 240.791Z" fill="#3F3D56"/>
<path id="Vector_10" d="M216.969 222.49V243.415H164.848C163.452 243.464 162.06 243.23 160.756 242.726C159.451 242.222 158.261 241.459 157.256 240.483C156.251 239.506 155.452 238.337 154.906 237.043C154.36 235.749 154.078 234.358 154.078 232.953C154.078 231.547 154.36 230.156 154.906 228.863C155.452 227.569 156.251 226.399 157.256 225.423C158.261 224.446 159.451 223.683 160.756 223.18C162.06 222.676 163.452 222.441 164.848 222.49H216.969Z" fill="#F2F2F2"/>
<path id="Vector_11" d="M218.249 243.254C218.249 243.468 218.165 243.672 218.015 243.823C217.865 243.974 217.661 244.059 217.449 244.059H163.92C161.013 244.059 158.225 242.897 156.169 240.83C154.113 238.762 152.958 235.957 152.958 233.033C152.958 230.109 154.113 227.305 156.169 225.237C158.225 223.169 161.013 222.007 163.92 222.007H217.449C217.661 222.007 217.865 222.092 218.015 222.243C218.165 222.394 218.249 222.599 218.249 222.812C218.249 223.026 218.165 223.23 218.015 223.381C217.865 223.532 217.661 223.617 217.449 223.617H163.92C161.439 223.619 159.06 224.612 157.306 226.378C155.552 228.144 154.567 230.537 154.567 233.033C154.567 235.529 155.552 237.923 157.306 239.688C159.06 241.454 161.439 242.447 163.92 242.449H217.449C217.661 242.449 217.864 242.534 218.015 242.685C218.165 242.836 218.249 243.041 218.249 243.254Z" fill="#2F0404"/>
<path id="Vector_12" d="M216.969 227.319H160.96C160.938 227.319 160.918 227.315 160.898 227.307C160.878 227.299 160.861 227.287 160.846 227.272C160.831 227.257 160.819 227.24 160.811 227.22C160.803 227.2 160.798 227.179 160.798 227.158C160.798 227.137 160.803 227.116 160.811 227.096C160.819 227.077 160.831 227.059 160.846 227.044C160.861 227.029 160.878 227.017 160.898 227.009C160.918 227.001 160.938 226.997 160.96 226.997H216.969C217.011 226.997 217.051 227.015 217.081 227.045C217.111 227.075 217.128 227.116 217.128 227.158C217.128 227.201 217.111 227.241 217.081 227.272C217.051 227.302 217.011 227.319 216.969 227.319Z" fill="#CCCCCC"/>
<path id="Vector_13" d="M216.969 231.182H160.96C160.938 231.182 160.918 231.178 160.898 231.17C160.878 231.162 160.861 231.15 160.846 231.135C160.831 231.12 160.819 231.103 160.811 231.083C160.803 231.063 160.798 231.042 160.798 231.021C160.798 231 160.803 230.979 160.811 230.959C160.819 230.94 160.831 230.922 160.846 230.907C160.861 230.892 160.878 230.88 160.898 230.872C160.918 230.864 160.938 230.86 160.96 230.86H216.969C217.011 230.861 217.051 230.878 217.081 230.908C217.111 230.938 217.128 230.979 217.128 231.021C217.128 231.064 217.111 231.104 217.081 231.135C217.051 231.165 217.011 231.182 216.969 231.182Z" fill="#CCCCCC"/>
<path id="Vector_14" d="M216.969 235.045H160.96C160.938 235.045 160.918 235.041 160.898 235.033C160.878 235.025 160.861 235.013 160.846 234.998C160.831 234.983 160.819 234.966 160.811 234.946C160.803 234.926 160.798 234.905 160.798 234.884C160.798 234.863 160.803 234.842 160.811 234.822C160.819 234.803 160.831 234.785 160.846 234.77C160.861 234.755 160.878 234.743 160.898 234.735C160.918 234.727 160.938 234.723 160.96 234.723H216.969C217.011 234.724 217.051 234.741 217.081 234.771C217.111 234.801 217.128 234.842 217.128 234.884C217.128 234.927 217.111 234.968 217.081 234.998C217.051 235.028 217.011 235.045 216.969 235.045Z" fill="#CCCCCC"/>
<path id="Vector_15" d="M216.969 238.908H160.96C160.938 238.908 160.918 238.904 160.898 238.896C160.878 238.888 160.861 238.876 160.846 238.861C160.831 238.846 160.819 238.829 160.811 238.809C160.803 238.789 160.798 238.768 160.798 238.747C160.798 238.726 160.803 238.705 160.811 238.685C160.819 238.666 160.831 238.648 160.846 238.633C160.861 238.618 160.878 238.606 160.898 238.598C160.918 238.59 160.938 238.586 160.96 238.586H216.969C217.011 238.587 217.051 238.604 217.081 238.634C217.111 238.664 217.128 238.705 217.128 238.747C217.128 238.79 217.111 238.831 217.081 238.861C217.051 238.891 217.011 238.908 216.969 238.908Z" fill="#CCCCCC"/>
<path id="Vector_16" d="M207.144 200.445V221.37H155.023C153.627 221.419 152.235 221.184 150.931 220.68C149.626 220.177 148.436 219.414 147.431 218.437C146.426 217.461 145.626 216.291 145.081 214.997C144.535 213.704 144.253 212.313 144.253 210.907C144.253 209.502 144.535 208.111 145.081 206.817C145.626 205.523 146.426 204.354 147.431 203.377C148.436 202.401 149.626 201.638 150.931 201.134C152.235 200.63 153.627 200.396 155.023 200.445H207.144Z" fill="#F2F2F2"/>
<path id="Vector_17" d="M208.424 221.209C208.424 221.422 208.339 221.627 208.189 221.778C208.039 221.929 207.836 222.013 207.624 222.013H154.095C152.655 222.013 151.23 221.728 149.9 221.174C148.57 220.62 147.362 219.808 146.344 218.784C145.326 217.76 144.518 216.545 143.968 215.207C143.417 213.869 143.133 212.436 143.133 210.988C143.133 209.54 143.417 208.106 143.968 206.768C144.518 205.431 145.326 204.215 146.344 203.191C147.362 202.168 148.57 201.355 149.9 200.801C151.23 200.247 152.655 199.962 154.095 199.962H207.624C207.836 199.962 208.039 200.047 208.189 200.198C208.34 200.349 208.424 200.553 208.424 200.767C208.424 200.98 208.34 201.185 208.189 201.336C208.039 201.487 207.836 201.572 207.624 201.572H154.095C151.614 201.574 149.235 202.567 147.481 204.333C145.727 206.098 144.742 208.492 144.742 210.988C144.742 213.484 145.727 215.877 147.481 217.643C149.235 219.409 151.614 220.402 154.095 220.404H207.624C207.836 220.404 208.039 220.489 208.189 220.64C208.339 220.791 208.424 220.995 208.424 221.209Z" fill="#3F3D56"/>
<path id="Vector_18" d="M207.144 205.274H151.134C151.113 205.274 151.092 205.27 151.073 205.262C151.053 205.254 151.036 205.242 151.021 205.227C151.006 205.212 150.994 205.194 150.986 205.175C150.977 205.155 150.973 205.134 150.973 205.113C150.973 205.092 150.977 205.07 150.986 205.051C150.994 205.031 151.006 205.013 151.021 204.999C151.036 204.984 151.053 204.972 151.073 204.964C151.092 204.956 151.113 204.952 151.134 204.952H207.144C207.186 204.952 207.226 204.969 207.256 204.999C207.286 205.029 207.303 205.07 207.303 205.113C207.303 205.155 207.286 205.196 207.256 205.226C207.226 205.256 207.186 205.273 207.144 205.274Z" fill="#CCCCCC"/>
<path id="Vector_19" d="M207.144 209.137H151.134C151.113 209.137 151.092 209.133 151.073 209.125C151.053 209.117 151.036 209.105 151.021 209.09C151.006 209.075 150.994 209.057 150.986 209.038C150.977 209.018 150.973 208.997 150.973 208.976C150.973 208.955 150.977 208.934 150.986 208.914C150.994 208.894 151.006 208.877 151.021 208.862C151.036 208.847 151.053 208.835 151.073 208.827C151.092 208.819 151.113 208.815 151.134 208.815H207.144C207.186 208.815 207.226 208.832 207.256 208.862C207.286 208.892 207.303 208.933 207.303 208.976C207.303 209.018 207.286 209.059 207.256 209.089C207.226 209.119 207.186 209.136 207.144 209.137Z" fill="#CCCCCC"/>
<path id="Vector_20" d="M207.144 213H151.134C151.113 213 151.092 212.996 151.073 212.988C151.053 212.98 151.036 212.968 151.021 212.953C151.006 212.938 150.994 212.92 150.986 212.901C150.977 212.881 150.973 212.86 150.973 212.839C150.973 212.818 150.977 212.797 150.986 212.777C150.994 212.757 151.006 212.74 151.021 212.725C151.036 212.71 151.053 212.698 151.073 212.69C151.092 212.682 151.113 212.678 151.134 212.678H207.144C207.186 212.678 207.226 212.695 207.256 212.725C207.286 212.756 207.303 212.796 207.303 212.839C207.303 212.881 207.286 212.922 207.256 212.952C207.226 212.982 207.186 212.999 207.144 213Z" fill="#CCCCCC"/>
<path id="Vector_21" d="M207.144 216.863H151.134C151.113 216.863 151.092 216.859 151.073 216.851C151.053 216.843 151.036 216.831 151.021 216.816C151.006 216.801 150.994 216.783 150.986 216.764C150.977 216.744 150.973 216.723 150.973 216.702C150.973 216.681 150.977 216.66 150.986 216.64C150.994 216.62 151.006 216.603 151.021 216.588C151.036 216.573 151.053 216.561 151.073 216.553C151.092 216.545 151.113 216.541 151.134 216.541H207.144C207.186 216.541 207.226 216.558 207.256 216.588C207.286 216.619 207.303 216.659 207.303 216.702C207.303 216.744 207.286 216.785 207.256 216.815C207.226 216.845 207.186 216.862 207.144 216.863Z" fill="#CCCCCC"/>
<path id="Vector_22" d="M267.275 299.547V317.291H193.453V299.547C193.453 299.547 193.453 299.547 193.453 299.547C193.453 298.872 193.72 298.225 194.193 297.749C194.667 297.273 195.308 297.006 195.976 297.006C195.976 297.006 195.976 297.006 195.976 297.006H264.752C265.42 297.006 266.062 297.273 266.535 297.749C267.009 298.225 267.275 298.872 267.275 299.547Z" fill="#CCCCCC" stroke="#2F0404"/>
<path id="Vector_23" d="M193.453 347.699V325.133H267.275V347.699H193.453Z" fill="#CCCCCC" stroke="#2F0404"/>
<path id="Vector_24" d="M193.453 373.285V355.54H267.275V373.285C267.275 373.96 267.009 374.606 266.535 375.082C266.062 375.559 265.42 375.826 264.752 375.826H195.976C195.308 375.826 194.667 375.559 194.193 375.082C193.72 374.606 193.453 373.96 193.453 373.285Z" fill="#CCCCCC" stroke="#2F0404"/>
<path id="Vector_25" d="M229.986 310.189C231.239 310.189 232.254 309.168 232.254 307.909C232.254 306.649 231.239 305.628 229.986 305.628C228.734 305.628 227.719 306.649 227.719 307.909C227.719 309.168 228.734 310.189 229.986 310.189Z" fill="white"/>
<path id="Vector_26" d="M229.986 340.597C231.239 340.597 232.254 339.576 232.254 338.316C232.254 337.057 231.239 336.036 229.986 336.036C228.734 336.036 227.719 337.057 227.719 338.316C227.719 339.576 228.734 340.597 229.986 340.597Z" fill="white"/>
<path id="Vector_27" d="M230.108 370.36C231.36 370.36 232.375 369.339 232.375 368.08C232.375 366.82 231.36 365.799 230.108 365.799C228.856 365.799 227.841 366.82 227.841 368.08C227.841 369.339 228.856 370.36 230.108 370.36Z" fill="white"/>
<path id="Vector_28" d="M259.292 275.704V296.628H207.172C205.776 296.677 204.384 296.443 203.079 295.939C201.775 295.435 200.585 294.672 199.58 293.696C198.575 292.72 197.775 291.55 197.229 290.256C196.684 288.962 196.402 287.571 196.402 286.166C196.402 284.76 196.684 283.369 197.229 282.076C197.775 280.782 198.575 279.612 199.58 278.636C200.585 277.659 201.775 276.897 203.079 276.393C204.384 275.889 205.776 275.655 207.172 275.704H259.292Z" fill="#F2F2F2"/>
<path id="Vector_29" d="M260.573 296.467C260.573 296.681 260.488 296.885 260.338 297.036C260.188 297.187 259.985 297.272 259.773 297.272H206.244C204.804 297.273 203.377 296.989 202.046 296.435C200.715 295.882 199.506 295.07 198.487 294.046C197.468 293.022 196.66 291.806 196.108 290.468C195.557 289.129 195.273 287.695 195.273 286.246C195.273 284.798 195.557 283.363 196.108 282.025C196.66 280.687 197.468 279.471 198.487 278.447C199.506 277.423 200.715 276.611 202.046 276.057C203.377 275.504 204.804 275.219 206.244 275.221H259.773C259.985 275.221 260.188 275.305 260.338 275.456C260.488 275.607 260.573 275.812 260.573 276.025C260.573 276.239 260.488 276.444 260.338 276.594C260.188 276.745 259.985 276.83 259.773 276.83H206.244C203.762 276.832 201.383 277.825 199.63 279.591C197.876 281.357 196.891 283.75 196.891 286.246C196.891 288.742 197.876 291.136 199.63 292.902C201.383 294.667 203.762 295.66 206.244 295.662H259.773C259.985 295.663 260.188 295.747 260.338 295.898C260.488 296.049 260.573 296.254 260.573 296.467Z" fill="#3F3D56"/>
<path id="Vector_30" d="M259.292 280.532H203.283C203.262 280.532 203.241 280.528 203.222 280.52C203.202 280.512 203.184 280.5 203.169 280.486C203.154 280.471 203.143 280.453 203.134 280.433C203.126 280.414 203.122 280.393 203.122 280.371C203.122 280.35 203.126 280.329 203.134 280.309C203.143 280.29 203.154 280.272 203.169 280.257C203.184 280.242 203.202 280.23 203.222 280.222C203.241 280.214 203.262 280.21 203.283 280.21H259.292C259.335 280.211 259.375 280.228 259.405 280.258C259.435 280.288 259.451 280.329 259.451 280.371C259.451 280.414 259.435 280.455 259.405 280.485C259.375 280.515 259.335 280.532 259.292 280.532Z" fill="#CCCCCC"/>
<path id="Vector_31" d="M259.292 284.395H203.283C203.262 284.395 203.241 284.391 203.222 284.383C203.202 284.375 203.184 284.363 203.169 284.349C203.154 284.334 203.143 284.316 203.134 284.296C203.126 284.277 203.122 284.256 203.122 284.234C203.122 284.213 203.126 284.192 203.134 284.172C203.143 284.153 203.154 284.135 203.169 284.12C203.184 284.105 203.202 284.093 203.222 284.085C203.241 284.077 203.262 284.073 203.283 284.073H259.292C259.335 284.074 259.375 284.091 259.405 284.121C259.435 284.151 259.451 284.192 259.451 284.234C259.451 284.277 259.435 284.318 259.405 284.348C259.375 284.378 259.335 284.395 259.292 284.395Z" fill="#CCCCCC"/>
<path id="Vector_32" d="M259.292 288.258H203.283C203.262 288.258 203.241 288.254 203.222 288.246C203.202 288.238 203.184 288.226 203.169 288.212C203.154 288.197 203.143 288.179 203.134 288.159C203.126 288.14 203.122 288.119 203.122 288.097C203.122 288.076 203.126 288.055 203.134 288.036C203.143 288.016 203.154 287.998 203.169 287.983C203.184 287.968 203.202 287.956 203.222 287.948C203.241 287.94 203.262 287.936 203.283 287.936H259.292C259.335 287.937 259.375 287.954 259.405 287.984C259.435 288.014 259.451 288.055 259.451 288.097C259.451 288.14 259.435 288.181 259.405 288.211C259.375 288.241 259.335 288.258 259.292 288.258Z" fill="#CCCCCC"/>
<path id="Vector_33" d="M259.292 292.121H203.283C203.262 292.121 203.241 292.117 203.222 292.109C203.202 292.101 203.184 292.09 203.169 292.075C203.154 292.06 203.143 292.042 203.134 292.022C203.126 292.003 203.122 291.982 203.122 291.96C203.122 291.939 203.126 291.918 203.134 291.898C203.143 291.879 203.154 291.861 203.169 291.846C203.184 291.831 203.202 291.819 203.222 291.811C203.241 291.803 203.262 291.799 203.283 291.799H259.292C259.335 291.8 259.375 291.817 259.405 291.847C259.435 291.877 259.451 291.918 259.451 291.96C259.451 292.003 259.435 292.044 259.405 292.074C259.375 292.104 259.335 292.121 259.292 292.121Z" fill="#CCCCCC"/>
<path id="Vector_34" d="M189.029 139.131V5.7177C189.03 4.2018 189.63 2.74848 190.695 1.67658C191.761 0.604679 193.206 0.00172047 194.713 -3.8147e-06H299.561C301.068 0.00173051 302.513 0.604693 303.579 1.67659C304.645 2.74849 305.244 4.2018 305.246 5.7177V139.131C305.244 140.646 304.645 142.1 303.579 143.172C302.513 144.244 301.068 144.847 299.561 144.848H194.713C193.206 144.847 191.761 144.244 190.695 143.172C189.63 142.1 189.03 140.646 189.029 139.131ZM194.713 1.2706C193.541 1.27192 192.417 1.74088 191.588 2.57458C190.759 3.40829 190.293 4.53866 190.292 5.7177V139.131C190.293 140.31 190.759 141.44 191.588 142.274C192.417 143.107 193.541 143.576 194.713 143.578H299.561C300.734 143.576 301.857 143.107 302.686 142.274C303.515 141.44 303.981 140.31 303.983 139.131V5.7177C303.981 4.53866 303.515 3.40829 302.686 2.57458C301.857 1.74088 300.734 1.27192 299.561 1.2706H194.713Z" fill="#2F0404"/>
<path id="Vector_35" d="M253.017 61.2694V33.8755C253.018 33.1175 253.317 32.3909 253.85 31.8549C254.383 31.319 255.105 31.0175 255.859 31.0166H278.938C279.692 31.0175 280.414 31.319 280.947 31.8549C281.48 32.3909 281.78 33.1175 281.781 33.8755V61.2694C281.78 62.0273 281.48 62.754 280.947 63.2899C280.414 63.8259 279.692 64.1274 278.938 64.1282H255.859C255.105 64.1274 254.383 63.8259 253.85 63.2899C253.317 62.754 253.018 62.0273 253.017 61.2694V61.2694Z" fill="#2F0404"/>
<path id="Vector_36" d="M208.672 73.9751V46.5818C208.673 45.9554 208.92 45.3555 209.36 44.9135C209.799 44.4715 210.394 44.2234 211.015 44.2227H234.093C234.713 44.2234 235.308 44.4715 235.748 44.9135C236.187 45.3556 236.435 45.9556 236.436 46.5821V73.9748C236.435 74.6013 236.187 75.2013 235.748 75.6435C235.308 76.0855 234.713 76.3335 234.093 76.3342H211.015C210.395 76.3335 209.799 76.0854 209.36 75.6434C208.92 75.2014 208.673 74.6014 208.672 73.9751Z" fill="#CCCCCC" stroke="#2F0404"/>
<path id="Vector_37" d="M244.674 112.728V85.335C244.675 84.7087 244.923 84.1087 245.362 83.6667C245.801 83.2247 246.397 82.9767 247.017 82.9759H270.095C270.715 82.9767 271.311 83.2247 271.75 83.6667L272.1 83.3183L271.75 83.6667C272.189 84.1088 272.437 84.7088 272.438 85.3353V112.728C272.437 113.355 272.189 113.955 271.75 114.397C271.31 114.839 270.715 115.087 270.095 115.087H247.017C246.397 115.087 245.802 114.839 245.362 114.397C244.923 113.955 244.675 113.355 244.674 112.728Z" fill="#EADBDE" stroke="#2F0404"/>
<path id="Vector_38" d="M382.095 237.971H358.348C358.123 237.971 357.9 238.023 357.698 238.123L351.705 241.141C351.507 241.226 351.339 241.367 351.221 241.546C351.103 241.726 351.04 241.937 351.04 242.152C351.04 242.368 351.103 242.579 351.221 242.759C351.339 242.938 351.507 243.079 351.705 243.164L357.698 246.181C357.9 246.282 358.123 246.334 358.348 246.334H382.095C382.422 246.353 382.743 246.241 382.989 246.023C383.236 245.806 383.387 245.499 383.41 245.17V239.135C383.387 238.806 383.236 238.499 382.989 238.281C382.743 238.064 382.422 237.952 382.095 237.971Z" fill="#3F3D56"/>
<path id="Vector_39" d="M383.41 239.135V245.17C383.387 245.499 383.236 245.806 382.989 246.023C382.743 246.241 382.422 246.353 382.095 246.333H377.364V237.971H382.095C382.422 237.952 382.743 238.064 382.989 238.281C383.236 238.499 383.387 238.806 383.41 239.135Z" fill="#2F0404"/>
<path id="Vector_40" d="M381.916 192.816C382.991 192.349 384.153 192.116 385.324 192.132C386.496 192.148 387.651 192.413 388.713 192.91C389.776 193.406 390.722 194.122 391.49 195.012C392.258 195.902 392.83 196.945 393.17 198.073C393.276 198.43 393.356 198.795 393.412 199.163L426.619 215.726L434.304 210.604L443.866 221.676L432.132 231.262C430.721 232.406 428.981 233.062 427.17 233.132C425.359 233.202 423.574 232.683 422.079 231.652L388.387 208.217C388.136 208.324 387.88 208.418 387.62 208.498C386.499 208.839 385.318 208.938 384.156 208.789C382.994 208.639 381.877 208.244 380.877 207.629C379.877 207.015 379.018 206.195 378.355 205.223C377.692 204.251 377.241 203.15 377.031 201.99C376.969 201.654 376.928 201.314 376.908 200.972C376.815 199.261 377.245 197.562 378.14 196.104C379.035 194.646 380.353 193.498 381.916 192.816Z" fill="#FFB8B8"/>
<path id="Vector_41" d="M451.081 294.794H414.796C414.796 295.843 377.4 296.695 377.4 296.695C376.813 297.139 376.278 297.649 375.805 298.215C374.385 299.919 373.609 302.073 373.613 304.297V305.817C373.614 308.337 374.61 310.753 376.381 312.535C378.153 314.317 380.555 315.318 383.061 315.319H451.081C453.586 315.317 455.987 314.315 457.759 312.534C459.53 310.752 460.526 308.337 460.528 305.817V304.297C460.525 301.778 459.528 299.363 457.757 297.581C455.986 295.8 453.585 294.798 451.081 294.794Z" fill="#3F3D56"/>
<path id="Vector_42" d="M411.611 378.798H421.436V314.942H411.611V378.798Z" fill="#3F3D56"/>
<path id="Vector_43" d="M383.647 378.451C383.647 379.518 398.536 378.864 416.902 378.864C435.268 378.864 450.156 379.518 450.156 378.451C450.156 377.383 435.268 368.915 416.902 368.915C398.536 368.915 383.647 377.383 383.647 378.451Z" fill="#3F3D56"/>
<path id="Vector_44" d="M392.517 370.966L383.252 370.965L378.843 346.794L392.518 346.794L392.517 370.966Z" fill="#FFB8B8"/>
<path id="Vector_45" d="M394.88 380L365.004 379.999V379.619C365.004 378.083 365.304 376.562 365.889 375.143C366.473 373.724 367.33 372.434 368.41 371.348C369.489 370.262 370.771 369.4 372.182 368.813C373.593 368.225 375.105 367.922 376.632 367.922H376.633L394.881 367.923L394.88 380Z" fill="#2F2E41"/>
<path id="Vector_46" d="M378.659 355.977L360.187 314.313C358.644 310.801 358.474 306.834 359.709 303.202C360.944 299.569 363.494 296.538 366.852 294.712L406.918 273.101L425.201 271.537L442.066 269.995L442.188 270.203C442.343 270.467 445.969 276.767 443.518 283.674C441.659 288.914 436.823 293.007 429.144 295.839C411.221 302.449 390.517 308.098 382.447 310.22C382.091 310.312 381.758 310.478 381.469 310.709C381.181 310.94 380.945 311.229 380.776 311.558C380.607 311.883 380.506 312.24 380.481 312.606C380.455 312.972 380.505 313.34 380.628 313.685L397.789 352.466C397.968 352.958 398.033 353.485 397.978 354.006C397.923 354.526 397.749 355.028 397.471 355.47C397.193 355.913 396.817 356.286 396.373 356.56C395.929 356.834 395.429 357.001 394.91 357.05L382.087 357.989C381.978 357.999 381.87 358.004 381.762 358.004C381.105 358.004 380.463 357.812 379.912 357.453C379.361 357.093 378.926 356.58 378.659 355.977Z" fill="#2F2E41"/>
<path id="Vector_47" d="M397.052 370.966L387.786 370.965L383.378 346.794L397.053 346.794L397.052 370.966Z" fill="#FFB8B8"/>
<path id="Vector_48" d="M399.415 380L369.538 379.999V379.619C369.538 378.083 369.839 376.562 370.423 375.143C371.008 373.724 371.864 372.434 372.944 371.348C374.024 370.262 375.306 369.4 376.717 368.813C378.128 368.225 379.64 367.922 381.167 367.922H381.168L399.415 367.923L399.415 380Z" fill="#2F2E41"/>
<path id="Vector_49" d="M383.949 358.257L365.477 316.593C363.935 313.082 363.764 309.115 364.999 305.482C366.235 301.85 368.785 298.819 372.142 296.992L412.208 275.382L430.492 273.818L447.357 272.276L447.478 272.483C447.634 272.747 451.26 279.047 448.809 285.955C446.95 291.195 442.113 295.287 434.435 298.119C416.512 304.729 395.807 310.379 387.738 312.501C387.381 312.592 387.048 312.759 386.76 312.989C386.472 313.22 386.236 313.509 386.067 313.838C385.897 314.163 385.797 314.52 385.771 314.887C385.746 315.253 385.796 315.62 385.918 315.966L403.079 354.747C403.259 355.239 403.323 355.765 403.268 356.286C403.213 356.807 403.04 357.308 402.761 357.751C402.483 358.194 402.108 358.567 401.664 358.84C401.22 359.114 400.719 359.282 400.2 359.33L387.377 360.269C387.269 360.28 387.16 360.285 387.052 360.285C386.396 360.285 385.753 360.093 385.202 359.733C384.652 359.373 384.216 358.861 383.949 358.257Z" fill="#2F2E41"/>
<path id="Vector_50" d="M384.881 179.009L384.883 179.009C385.245 178.812 385.648 178.701 386.059 178.684C386.47 178.667 386.88 178.745 387.258 178.912L387.259 178.912C387.645 179.081 387.987 179.336 388.26 179.658C388.534 179.98 388.73 180.36 388.836 180.771L388.836 180.773C391.948 192.656 397.796 203.635 405.909 212.822L405.911 212.824C406.192 213.139 406.398 213.515 406.514 213.922C406.629 214.33 406.651 214.759 406.576 215.176L406.576 215.178C406.505 215.587 406.342 215.975 406.099 216.311C405.857 216.647 405.542 216.922 405.178 217.117L405.177 217.118L378.615 231.433C378.615 231.433 378.615 231.433 378.615 231.433C378.041 231.741 377.376 231.834 376.74 231.695L376.634 232.184L376.74 231.695C376.105 231.557 375.538 231.197 375.141 230.677C367.411 220.334 361.299 208.862 357.019 196.659C356.809 196.038 356.824 195.362 357.062 194.752C357.3 194.141 357.746 193.635 358.32 193.325C358.32 193.325 358.32 193.324 358.32 193.324L384.881 179.009Z" fill="#CCCCCC" stroke="#2F0404"/>
<path id="Vector_51" d="M404.111 215.105L404.111 215.105L404.106 215.107L377.545 229.422C377.545 229.422 377.545 229.422 377.545 229.422C377.446 229.475 377.333 229.491 377.224 229.469C377.117 229.446 377.02 229.388 376.95 229.302C369.361 219.148 363.362 207.886 359.159 195.906C359.127 195.799 359.132 195.684 359.173 195.58C359.216 195.475 359.293 195.388 359.391 195.335C359.391 195.335 359.391 195.334 359.392 195.334L385.952 181.02L385.952 181.02L385.957 181.017C386.017 180.984 386.083 180.965 386.151 180.962C386.219 180.96 386.286 180.973 386.349 181.001L386.349 181.001L386.355 181.003C386.425 181.034 386.487 181.08 386.537 181.139C386.587 181.198 386.622 181.268 386.641 181.344L386.641 181.344L386.643 181.352C389.845 193.582 395.865 204.883 404.216 214.339L404.216 214.339L404.221 214.345C404.273 214.402 404.311 214.471 404.333 214.546C404.354 214.62 404.358 214.699 404.344 214.776L404.344 214.776L404.343 214.783C404.331 214.851 404.304 214.916 404.264 214.972C404.224 215.028 404.171 215.073 404.111 215.105Z" fill="white" stroke="#2F0404"/>
<path id="Vector_52" d="M462.985 227.16L442.183 235.111L437.104 220.921C436.43 219.037 436.439 216.973 437.131 215.095C437.823 213.217 439.152 211.646 440.884 210.659C442.637 209.66 444.686 209.324 446.663 209.712C448.64 210.101 450.414 211.187 451.664 212.775L462.985 227.16Z" fill="#2F0404"/>
<path id="Vector_53" d="M410.073 283.383C409.636 283.072 409.269 282.67 408.997 282.205C408.726 281.74 408.556 281.222 408.499 280.686C405.834 255.668 407.69 236.09 414.171 220.832C415.313 218.201 417.033 215.864 419.201 213.997C421.37 212.13 423.931 210.781 426.692 210.053L443.508 209.199L443.595 209.242C447.39 211.111 450.484 214.161 452.42 217.938C454.356 221.716 455.03 226.021 454.342 230.214C448.933 244.554 444.405 259.484 447.858 271.527C448.003 272.031 448.045 272.559 447.983 273.079C447.92 273.599 447.753 274.102 447.493 274.556C447.24 274.994 446.901 275.376 446.496 275.678C446.091 275.98 445.629 276.195 445.138 276.311L413.109 283.974C412.59 284.098 412.051 284.11 411.528 284.008C411.004 283.906 410.509 283.693 410.073 283.383Z" fill="#2F0404"/>
<path id="Vector_54" d="M437.896 202.882C448.148 202.882 456.459 194.523 456.459 184.211C456.459 173.899 448.148 165.54 437.896 165.54C427.644 165.54 419.333 173.899 419.333 184.211C419.333 194.523 427.644 202.882 437.896 202.882Z" fill="#FFB8B8"/>
<path id="Vector_55" d="M386.388 198.999L371.921 205.422C371.371 205.666 370.747 205.68 370.186 205.461C369.626 205.243 369.174 204.81 368.931 204.257L368.573 203.442C368.331 202.888 368.317 202.261 368.534 201.697C368.751 201.133 369.182 200.679 369.732 200.434L384.199 194.011C384.749 193.767 385.373 193.753 385.933 193.972C386.494 194.19 386.945 194.624 387.188 195.176L387.546 195.992C387.788 196.545 387.802 197.173 387.585 197.736C387.368 198.3 386.937 198.754 386.388 198.999Z" fill="#CCCCCC"/>
<path id="Vector_56" d="M391.678 208.881L377.211 215.305C376.661 215.548 376.037 215.562 375.477 215.344C374.916 215.125 374.465 214.692 374.222 214.139L373.864 213.324C373.622 212.771 373.608 212.143 373.825 211.579C374.042 211.016 374.473 210.561 375.022 210.317L389.489 203.893C390.039 203.65 390.663 203.636 391.224 203.854C391.784 204.073 392.236 204.506 392.479 205.059L392.837 205.874C393.079 206.428 393.093 207.055 392.876 207.619C392.659 208.183 392.228 208.637 391.678 208.881Z" fill="#CCCCCC"/>
<path id="Vector_57" d="M402.835 247.482L370.582 221.889C370.325 221.98 370.064 222.058 369.799 222.121C368.661 222.389 367.479 222.413 366.331 222.192C365.183 221.97 364.094 221.508 363.135 220.836C362.169 220.163 361.358 219.29 360.755 218.276C360.152 217.262 359.771 216.131 359.638 214.957C359.422 213.08 359.842 211.185 360.831 209.579C361.82 207.973 363.32 206.751 365.087 206.11C366.189 205.712 367.363 205.553 368.531 205.643C369.699 205.733 370.835 206.071 371.865 206.633C372.894 207.196 373.793 207.97 374.504 208.907C375.215 209.844 375.722 210.921 375.99 212.068C376.073 212.431 376.131 212.8 376.163 213.171L408.269 231.802L416.259 227.175L425.11 238.83L412.705 247.724C411.253 248.756 409.508 249.29 407.73 249.247C405.952 249.203 404.235 248.584 402.835 247.482Z" fill="#FFB8B8"/>
<path id="Vector_58" d="M429.046 242.46L410.644 229.873L419.292 217.553C420.44 215.917 422.127 214.742 424.053 214.235C425.979 213.729 428.022 213.924 429.819 214.786C431.637 215.657 433.085 217.154 433.902 219.006C434.719 220.858 434.851 222.942 434.274 224.883L429.046 242.46Z" fill="#2F0404"/>
<path id="Vector_59" d="M431.091 181.43C426.32 184.715 420.055 188.091 415.182 184.593C411.983 182.297 410.974 178.044 412.272 174.312C414.605 167.6 421.016 164.646 427.146 162.381C435.115 159.437 443.793 157.094 452.02 159.203C460.247 161.311 467.517 169.323 466.032 177.731C464.838 184.492 458.497 190.118 459.397 196.925C460.303 203.776 467.963 207.382 474.726 208.607C481.488 209.831 489.056 210.225 493.915 215.11C500.115 221.343 498.567 232.483 492.733 239.063C486.9 245.644 478.096 248.627 469.566 250.654C458.263 253.341 446.039 254.753 435.305 250.294C424.57 245.836 416.217 233.833 419.327 222.578C420.64 217.824 423.734 213.806 426.724 209.895C429.715 205.983 432.743 201.893 433.884 197.094C434.834 193.095 434.131 188.452 431.494 185.452C431.014 184.927 430.713 184.262 430.632 183.554C430.551 182.846 430.696 182.13 431.045 181.509L431.091 181.43Z" fill="black"/>
<g id="animate leaf">
<path id="Vector_60" d="M82.4346 272.146C77.6514 273.837 72.5157 274.261 67.5224 273.376C62.5292 272.491 57.8465 270.328 53.9257 267.095C43.9404 258.665 40.8097 244.777 38.2623 231.917C35.7508 219.238 33.2393 206.559 30.7278 193.881L46.5021 204.806C57.8461 212.662 69.4457 220.77 77.3002 232.15C85.1548 243.53 88.5833 259.065 82.2724 271.378" fill="#2F0404"/>
<path id="Vector_61" d="M81.0862 318.197C82.6828 306.5 84.3245 294.652 83.2046 282.829C82.21 272.329 79.0252 262.074 72.5414 253.665C69.0998 249.21 64.912 245.393 60.1664 242.386C58.9289 241.6 57.7899 243.573 59.022 244.355C67.2334 249.575 73.5845 257.283 77.1599 266.368C81.1087 276.47 81.7429 287.483 81.0624 298.214C80.6509 304.704 79.7787 311.152 78.8998 317.591C78.8305 317.882 78.8738 318.189 79.0208 318.449C79.1677 318.709 79.4075 318.904 79.6916 318.993C79.9815 319.072 80.2905 319.032 80.5516 318.883C80.8126 318.734 81.0047 318.488 81.0862 318.197H81.0862Z" fill="#F2F2F2"/>
</g>
<g id="animate leaf_2">
<path id="Vector_62" d="M65.7083 297.498C63.6569 300.634 60.837 303.186 57.5204 304.908C54.2038 306.63 50.5023 307.463 46.7724 307.328C37.1868 306.871 29.1954 300.142 22.0016 293.753L0.723907 274.857L14.8062 274.179C24.9334 273.691 35.3218 273.237 44.9676 276.378C54.6134 279.519 63.5092 287.079 65.273 297.121" fill="#2F0404"/>
<path id="Vector_63" d="M85.5982 324.921C77.9137 311.245 69.0002 296.045 53.0734 291.186C48.645 289.84 44.0015 289.358 39.393 289.766C37.9406 289.892 38.3033 292.144 39.7531 292.018C47.4779 291.373 55.1879 293.424 61.5849 297.827C67.7407 302.042 72.5336 307.901 76.5903 314.115C79.0751 317.92 81.3009 321.888 83.5271 325.85C84.2385 327.116 86.318 326.202 85.5982 324.921Z" fill="#F2F2F2"/>
</g>
<path id="Vector_64" d="M87.327 325.453V325.787L87.6343 325.915C90.3305 327.041 92.6683 328.89 94.3926 331.261C96.117 333.631 97.1618 336.432 97.413 339.36C97.413 339.36 97.413 339.36 97.413 339.36L100.467 375.065H62.5518L65.6056 339.36C65.6056 339.36 65.6056 339.36 65.6056 339.36C65.8487 336.533 66.8328 333.821 68.4572 331.502C70.0816 329.183 72.2882 327.338 74.8517 326.157L75.1425 326.023V325.703V318.047H87.327V325.453Z" fill="#F2F2F2" stroke="#2F0404"/>
</g>
<defs>
<clipPath id="clip0_1_84">
<rect width="523" height="380" fill="white"/>
</clipPath>
</defs>
</svg>
